<svg width="64" height="70" viewBox="0 0 64 70" fill="none" xmlns="http://www.w3.org/2000/svg">
    <g clip-path="url(#clip0_113_10704)">
        <path fill-rule="evenodd" clip-rule="evenodd" d="M60.4119 46.281C60.119 49.0556 57.9222 52.9254 55.7254 54.5317C55.6522 54.5317 51.5515 57.5984 46.4256 60.6651C41.2998 63.6587 36.6133 65.7762 36.6133 65.7762C35.4416 66.2873 33.7574 66.5794 32 66.5794C30.2426 66.5794 28.5584 66.2873 27.3867 65.7762C27.3135 65.7762 22.627 63.6587 17.5744 60.6651C12.4485 57.6714 8.34783 54.6048 8.2746 54.5317C6.0778 52.9254 3.88101 49.0556 3.5881 46.281C3.5881 46.2079 3.07551 41.0238 3.07551 35.0365C3.00229 28.9762 3.5881 23.7921 3.5881 23.719C3.88101 20.9444 6.0778 17.0746 8.2746 15.4683C8.34783 15.4683 12.4485 12.4016 17.5744 9.33492C22.7002 6.34127 27.3867 4.22381 27.3867 4.22381C28.5584 3.7127 30.2426 3.42063 32 3.42063C33.7574 3.42063 35.4416 3.7127 36.6133 4.22381C36.6865 4.22381 41.2998 6.34127 46.4256 9.33492C51.5515 12.3286 55.6522 15.3952 55.7254 15.4683C57.9222 17.0746 60.119 20.9444 60.4119 23.719C60.4119 23.7921 60.9245 28.9762 60.9245 34.9635C60.9977 41.0238 60.4119 46.2079 60.4119 46.281ZM63.341 23.427C62.9748 19.8492 60.3387 15.2492 57.4828 13.1317C57.4828 13.1317 53.2357 9.99206 47.8902 6.85238C42.5446 3.7127 37.7849 1.59524 37.7849 1.59524C36.1739 0.865079 34.0503 0.5 31.9268 0.5C29.8032 0.5 27.6796 0.865079 26.0686 1.59524C26.0686 1.59524 21.2357 3.78571 15.9634 6.85238C10.6911 9.99206 6.44394 13.1317 6.44394 13.1317C3.5881 15.2492 0.951945 19.8492 0.585812 23.427C0.585812 23.427 0 28.7571 0 34.9635C0 41.2429 0.585812 46.5 0.585812 46.5C0.951945 50.0778 3.5881 54.6778 6.44394 56.7952C6.44394 56.7952 10.6911 59.9349 16.0366 63.0746C21.3822 66.2143 26.1419 68.4048 26.1419 68.4048C27.7529 69.1349 29.8764 69.5 32 69.5C34.1236 69.5 36.2471 69.1349 37.8581 68.4048C37.8581 68.4048 42.6911 66.2143 47.9634 63.1476C53.3089 60.0079 57.5561 56.8683 57.5561 56.8683C60.4119 54.7508 63.0481 50.1508 63.4142 46.573C63.4142 46.573 64 41.2429 64 35.0365C63.9268 28.7571 63.341 23.427 63.341 23.427Z" fill="#FFFFFF"/>
        <path fill-rule="evenodd" clip-rule="evenodd" d="M50.8778 47.88C51.1341 47.3981 51.3538 46.887 51.5149 46.3613C51.7712 45.5289 51.9103 44.6454 51.9103 43.7327C51.9103 41.4035 50.9657 39.2496 49.4206 37.6724C49.1936 37.4388 48.9519 37.227 48.6956 37.0226C48.4027 36.7889 48.1025 36.5699 47.7803 36.3654C47.2458 36.0369 46.6673 35.7594 46.0522 35.5477V35.4746V18.827C46.0522 18.4254 45.8837 18.0603 45.6201 17.7975C45.4956 17.6734 45.3419 17.5711 45.1734 17.4981C45.1661 17.4981 45.1588 17.4908 45.1515 17.4835C44.9757 17.4105 44.7853 17.3667 44.5803 17.3667H19.0389C18.2334 17.3667 17.5743 18.0238 17.5743 18.827V49.6397C17.5743 50.4429 18.2334 51.1 19.0389 51.1H38.151C39.5423 52.0492 41.2265 52.5603 43.0572 52.5603C46.4329 52.5603 49.3547 50.6984 50.8485 47.9457C50.8631 47.9238 50.8705 47.9019 50.8778 47.88ZM43.1304 34.9635C43.1304 34.9635 43.1304 34.9635 43.0572 34.9635C38.151 34.9635 34.1968 38.9064 34.1968 43.7984C34.1968 45.2734 34.5776 46.6753 35.2073 47.8508C35.2659 47.9603 35.3098 48.0772 35.3684 48.1794H20.5034V20.2873H43.1304V34.9635ZM37.1991 43.7984C37.1991 40.5857 39.8352 37.9572 43.0572 37.9572C44.8366 37.9572 46.4256 38.7603 47.502 40.0162C47.5826 40.1111 47.6631 40.2134 47.7437 40.3156C47.9121 40.5419 48.0732 40.7756 48.205 41.0238C48.659 41.8489 48.9153 42.7981 48.9153 43.8057C48.9885 47.0184 46.3524 49.647 43.0572 49.647C40.2819 49.647 37.946 47.6975 37.3528 45.1054C37.2576 44.6746 37.1991 44.2438 37.1991 43.7984ZM39.0224 44.66C38.583 44.1927 38.5538 43.4407 38.9492 42.893C38.9931 42.8273 39.0444 42.7616 39.103 42.7032C39.2055 42.5864 39.3226 42.5061 39.4471 42.433C39.4837 42.4111 39.5203 42.3892 39.557 42.3746C39.5643 42.3746 39.5716 42.3673 39.5862 42.3673C39.7473 42.3016 39.9231 42.2651 40.1062 42.2651C40.4796 42.2651 40.8677 42.4111 41.1606 42.7032L42.4055 43.9445L45.3711 41.2429L45.7739 40.8778C45.8252 40.834 45.8764 40.8048 45.9277 40.7683C45.957 40.7537 45.9789 40.7318 46.0082 40.7099C46.0155 40.7026 46.0229 40.7026 46.0302 40.7026C46.4183 40.4908 46.8796 40.4543 47.2824 40.593C47.4874 40.6661 47.6705 40.7829 47.8242 40.9508C47.8316 40.9581 47.8316 40.9654 47.8389 40.9654C48.2636 41.4035 48.3295 42.0388 48.0952 42.5426C48.0146 42.7105 47.8975 42.8711 47.751 42.9953L43.3574 47.0111C43.0645 47.2302 42.6984 47.3762 42.3322 47.3762C42.1199 47.3762 41.9075 47.3251 41.7098 47.2229C41.5634 47.1499 41.4242 47.0623 41.3071 46.9381L39.1103 44.7477C39.0737 44.7184 39.0517 44.6892 39.0224 44.66ZM23.33 26.041C23.2567 25.8657 23.2128 25.6759 23.2128 25.4715C23.2128 24.6683 23.8718 24.0111 24.6773 24.0111H38.6636C39.1542 24.0111 39.5936 24.2594 39.8572 24.6391C39.8792 24.6683 39.8938 24.6975 39.9158 24.734C39.9963 24.8654 40.0549 25.0042 40.0915 25.1575C40.1135 25.2597 40.1281 25.3692 40.1281 25.4788C40.1281 26.2819 39.4691 26.9391 38.6636 26.9391H24.6773C24.0695 26.9318 23.5496 26.5594 23.33 26.041ZM23.33 32.6124C23.2567 32.4372 23.2128 32.2473 23.2128 32.0429C23.2128 31.2397 23.8718 30.5826 24.6773 30.5826H38.6636C39.1542 30.5826 39.5936 30.8308 39.8572 31.2105C39.8792 31.2397 39.8938 31.2689 39.9158 31.3054C39.9963 31.4369 40.0549 31.5756 40.0915 31.7289C40.1135 31.8311 40.1281 31.9407 40.1281 32.0502C40.1281 32.8534 39.4691 33.5105 38.6636 33.5105H24.6773C24.0695 33.5032 23.5496 33.1308 23.33 32.6124Z" fill="#FFFFFF"/>
    </g>
    <defs>
        <clipPath id="clip0_113_10704">
            <rect width="64" height="69" fill="white" transform="translate(0 0.5)"/>
        </clipPath>
    </defs>
</svg>