<svg width="65" height="70" viewBox="0 0 65 70" fill="none" xmlns="http://www.w3.org/2000/svg">
    <g clip-path="url(#clip0_113_10558)">
        <path d="M63.591 22.9744C63.224 19.451 60.5815 14.8265 57.7921 12.6978C57.7921 12.6978 53.5347 9.54141 48.2495 6.45844C42.9644 3.30205 38.1198 1.17333 38.1198 1.17333C36.5049 0.439287 34.3761 0.0722656 32.3208 0.0722656C30.1921 0.0722656 28.0634 0.439287 26.5219 1.17333C26.5219 1.17333 21.7506 3.30205 16.3921 6.45844C11.107 9.61482 6.84955 12.6978 6.84955 12.6978C3.98678 14.8265 1.41763 19.451 1.05061 22.9744C1.05061 22.9744 0.463379 28.2595 0.463379 34.5723C0.463379 40.8116 1.05061 46.1701 1.05061 46.1701C1.41763 49.6935 4.06019 54.318 6.84955 56.4467C6.84955 56.4467 11.107 59.6031 16.3921 62.7595C21.6772 65.9159 26.5219 68.0446 26.5219 68.0446C28.1368 68.7786 30.2655 69.1457 32.3208 69.1457C34.4496 69.1457 36.5783 68.7786 38.1198 68.0446C38.1198 68.0446 42.891 65.9159 48.2495 62.7595C53.5347 59.6031 57.7921 56.4467 57.7921 56.4467C60.6549 54.318 63.224 49.6935 63.591 46.1701C63.591 46.1701 64.1783 40.885 64.1783 34.5723C64.1783 28.3329 63.591 22.9744 63.591 22.9744ZM60.6549 45.8031C60.3613 48.5925 58.1591 52.4095 56.0304 54.0244C55.957 54.0244 51.8464 57.1074 46.7815 60.1169C41.7166 63.1265 37.0187 65.2552 36.9453 65.2552C35.7708 65.7691 34.0825 66.0627 32.3208 66.0627C30.5591 66.0627 28.8708 65.7691 27.6964 65.2552C27.623 65.2552 22.9985 63.1265 17.8602 60.1169C12.7953 57.1074 8.61125 54.0244 8.61125 54.0244C6.40912 52.4095 4.2804 48.5191 3.98678 45.8031C3.91338 45.8031 3.39955 40.5914 3.39955 34.5723C3.39955 28.5531 3.91338 23.3414 3.91338 23.3414C4.207 20.5521 6.40912 16.735 8.53785 15.1201C8.61125 15.1201 12.7219 12.0372 17.7868 9.02758C22.8517 6.01801 27.5496 3.88929 27.623 3.88929C28.8708 3.30205 30.5591 3.00844 32.3208 3.00844C34.0825 3.00844 35.7708 3.30205 36.9453 3.81588C37.0187 3.81588 41.6432 5.94461 46.7815 8.95418C51.8464 11.9638 56.0304 15.0467 56.0304 15.0467C58.2325 16.6616 60.3613 20.5521 60.6549 23.268C60.6549 23.3414 61.1687 28.4797 61.1687 34.4989C61.2421 40.5914 60.6549 45.8031 60.6549 45.8031Z" fill="#FFF"/>
        <path d="M44.2857 15.9277V12.9181C44.2857 11.8904 43.8453 10.9362 43.1113 10.349C42.3772 9.76172 41.3496 9.61491 40.3219 9.90853L18.9613 15.9277C18.5208 16.0745 18.2272 16.3681 18.007 16.7351C17.4932 17.249 17.1262 17.983 17.1262 18.8638V51.8958C17.1262 53.5107 18.4474 54.8319 20.0623 54.8319H43.5517C45.1666 54.8319 46.4879 53.5107 46.4879 51.8958V18.8638C46.4879 17.3958 45.5336 16.2213 44.2857 15.9277ZM41.0559 12.6979C41.2028 12.6245 41.2762 12.6979 41.2762 12.6979C41.2762 12.6979 41.3496 12.7713 41.3496 12.9181V15.8543H29.9719L41.0559 12.6979ZM43.5517 51.8224H20.0623V18.7904H43.5517V51.8224Z" fill="#FFF"/>
        <path d="M25.9346 22.4604H22.9985V34.2051C22.9985 36.7009 24.3198 39.3434 28.1368 39.3434H29.091L29.6783 39.9307L31.7336 41.986L33.7889 39.9307L34.3761 39.3434H35.3304C38.34 39.3434 40.4687 37.2147 40.4687 34.2051V22.4604H25.9346ZM37.6793 34.2051C37.6793 35.6732 36.7251 36.4073 35.4772 36.4073H33.2751L31.807 37.8753L30.3389 36.4073H28.1368C27.4027 36.4073 25.9346 36.4073 25.9346 34.2051V25.3966H37.6793V34.2051ZM39.1474 44.4817H24.4666C23.6591 44.4817 22.9985 45.1424 22.9985 45.9498C22.9985 46.7573 23.6591 47.4179 24.4666 47.4179H39.1474C39.9549 47.4179 40.6155 46.7573 40.6155 45.9498C40.6155 45.1424 39.9549 44.4817 39.1474 44.4817Z" fill="#FFF"/>
    </g>
    <defs>
        <clipPath id="clip0_113_10558">
            <rect width="63.7149" height="69" fill="white" transform="translate(0.463379 0.0722656)"/>
        </clipPath>
    </defs>
</svg>