<svg width="64" height="70" viewBox="0 0 64 70" fill="none" xmlns="http://www.w3.org/2000/svg">
    <g clip-path="url(#clip0_113_10570)">
        <path d="M23.0456 37.5618C23.0431 37.7539 23.0791 37.9445 23.1515 38.1224C23.2239 38.3003 23.3312 38.462 23.467 38.5978C23.6028 38.7336 23.7644 38.8409 23.9424 38.9133C24.1203 38.9856 24.3109 39.0217 24.503 39.0192H38.4396C38.8262 39.0192 39.1969 38.8657 39.4702 38.5924C39.7435 38.319 39.897 37.9483 39.897 37.5618C39.897 37.1753 39.7435 36.8046 39.4702 36.5312C39.1969 36.2579 38.8262 36.1044 38.4396 36.1044H24.503C24.3109 36.1019 24.1203 36.1379 23.9424 36.2103C23.7644 36.2827 23.6028 36.39 23.467 36.5258C23.3312 36.6616 23.2239 36.8232 23.1515 37.0012C23.0791 37.1791 23.0431 37.3697 23.0456 37.5618ZM38.5307 41.9341H24.503C24.1165 41.9341 23.7457 42.0876 23.4724 42.3609C23.1991 42.6343 23.0456 43.005 23.0456 43.3915C23.0456 43.778 23.1991 44.1487 23.4724 44.4221C23.7457 44.6954 24.1165 44.8489 24.503 44.8489H38.4396C38.6317 44.8514 38.8223 44.8154 39.0002 44.743C39.1782 44.6706 39.3398 44.5633 39.4756 44.4275C39.6115 44.2917 39.7187 44.13 39.7911 43.9521C39.8635 43.7742 39.8995 43.5836 39.897 43.3915C39.9032 43.2083 39.8723 43.0257 39.8064 42.8546C39.7405 42.6836 39.6408 42.5275 39.5133 42.3958C39.3858 42.264 39.2331 42.1593 39.0643 42.0878C38.8955 42.0163 38.714 41.9795 38.5307 41.9796V41.9341Z" fill="#fff"/>
        <path d="M63.2159 23.0785C62.5742 19.1046 60.5401 15.4885 57.4772 12.8765C54.4273 10.6515 51.2654 8.58413 48.004 6.68246C44.7416 4.72214 41.3653 2.95796 37.8931 1.39929C36.073 0.653305 34.1213 0.281556 32.1545 0.306225C30.1853 0.254621 28.2281 0.627418 26.4158 1.39929C22.9542 2.9797 19.5791 4.74325 16.305 6.68246C11.0218 9.87058 6.83169 12.8765 6.83169 12.8765C3.7549 15.477 1.71771 19.0987 1.09307 23.0785C1.09307 23.0785 0.546539 28.3617 0.546539 34.6924C0.546539 41.0231 1.09307 46.2607 1.09307 46.2607C1.7347 50.2346 3.76879 53.8507 6.83169 56.4627C6.83169 56.4627 11.1129 59.6508 16.305 62.7478C19.5684 64.6926 22.9447 66.4416 26.4158 67.9854C28.2359 68.7314 30.1876 69.1032 32.1545 69.0785C34.1236 69.1301 36.0808 68.7573 37.8931 67.9854C41.3547 66.405 44.7298 64.6415 48.004 62.7023C53.2871 59.5141 57.4772 56.4171 57.4772 56.4171C60.554 53.8166 62.5912 50.195 63.2159 46.2151C63.2159 46.2151 63.7624 40.932 63.7624 34.6468C63.7624 28.3617 63.2159 23.0785 63.2159 23.0785ZM60.2099 45.7597C59.6886 48.9589 58.041 51.8665 55.5644 53.9577C55.4733 53.9577 51.3743 57.0547 46.3644 60.0607C43.1982 61.9707 39.9122 63.6746 36.5267 65.1617C35.0518 65.7539 33.4698 66.0331 31.8812 65.9815C30.2932 66.0243 28.713 65.7454 27.2356 65.1617C23.8708 63.6318 20.5872 61.9292 17.398 60.0607C12.3881 57.0547 8.19802 53.9577 8.19802 53.9577C5.77011 51.8265 4.13315 48.9377 3.55248 45.7597C3.14202 42.0397 2.9595 38.298 3.00595 34.5557C3.01284 30.8425 3.22571 27.1325 3.64357 23.4429C4.16489 20.2436 5.81251 17.3361 8.28911 15.2448C8.3802 15.2448 12.4792 12.1478 17.4891 9.14187C20.6553 7.23183 23.9413 5.52797 27.3267 4.04088C28.7998 3.43309 30.3788 3.12349 31.9723 3.12999C33.5602 3.08718 35.1404 3.36603 36.6178 3.94979C39.9827 5.47965 43.2662 7.18224 46.4555 9.05078C51.4654 12.0567 55.6555 15.1537 55.6555 15.1537C58.0834 17.285 59.7203 20.1738 60.301 23.3518C60.301 23.4429 60.8475 28.5438 60.8475 34.5557C60.8383 38.2992 60.6255 42.0394 60.2099 45.7597Z" fill="#fff"/>
        <path d="M43.9049 17.8865H19.402C19.1078 17.8745 18.8143 17.9243 18.5406 18.0329C18.2668 18.1414 18.0189 18.3061 17.8129 18.5165C17.6068 18.7268 17.4472 18.9781 17.3444 19.254C17.2415 19.5299 17.1977 19.8243 17.2158 20.1182V49.0845C17.2229 49.6621 17.4555 50.2141 17.864 50.6225C18.2724 51.031 18.8244 51.2636 19.402 51.2707H43.9049C44.2002 51.2722 44.4927 51.2137 44.7647 51.0986C45.0366 50.9836 45.2823 50.8144 45.4868 50.6013C45.6913 50.3883 45.8504 50.1359 45.9542 49.8595C46.0581 49.5831 46.1047 49.2884 46.0911 48.9935V20.1182C46.101 19.8263 46.0515 19.5355 45.9457 19.2632C45.84 18.991 45.68 18.7431 45.4757 18.5345C45.2713 18.3258 45.0267 18.1608 44.7567 18.0495C44.4867 17.9381 44.197 17.8827 43.9049 17.8865ZM43.1762 48.4014H20.1307V20.8014H43.1762V48.4014Z" fill="#fff"/>
        <path d="M24.3208 29.4549H25.7782V30.9124C25.7782 31.2989 25.9318 31.6696 26.2051 31.9429C26.4784 32.2162 26.8491 32.3698 27.2357 32.3698C27.6222 32.3698 27.9929 32.2162 28.2662 31.9429C28.5395 31.6696 28.6931 31.2989 28.6931 30.9124V29.4549H30.1505C30.537 29.4549 30.9077 29.3014 31.1811 29.0281C31.4544 28.7548 31.6079 28.3841 31.6079 27.9975C31.6079 27.611 31.4544 27.2403 31.1811 26.967C30.9077 26.6936 30.537 26.5401 30.1505 26.5401H28.6931V25.0827C28.6931 24.6961 28.5395 24.3254 28.2662 24.0521C27.9929 23.7788 27.6222 23.6252 27.2357 23.6252C26.8491 23.6252 26.4784 23.7788 26.2051 24.0521C25.9318 24.3254 25.7782 24.6961 25.7782 25.0827V26.5401H24.3208C23.9343 26.5401 23.5636 26.6936 23.2902 26.967C23.0169 27.2403 22.8634 27.611 22.8634 27.9975C22.8634 28.3841 23.0169 28.7548 23.2902 29.0281C23.5636 29.3014 23.9343 29.4549 24.3208 29.4549Z" fill="#fff"/>
    </g>
    <defs>
        <clipPath id="clip0_113_10570">
            <rect width="63.7624" height="69" fill="white" transform="translate(0 0.0786133)"/>
        </clipPath>
    </defs>
</svg>