<svg width="64" height="70" viewBox="0 0 64 70" fill="none" xmlns="http://www.w3.org/2000/svg">
    <g clip-path="url(#clip0_113_10667)">
        <path fill-rule="evenodd" clip-rule="evenodd" d="M62.8191 23.6561C62.4468 20.1415 59.8504 15.5592 57.046 13.4739C57.046 13.4739 52.8591 10.3573 47.6002 7.26608C42.3391 4.17052 37.5959 2.03297 37.5959 2.03297C36.0097 1.31755 33.9188 0.960205 31.8264 0.960205C29.734 0.960205 27.6402 1.31755 26.0548 2.03297C26.0548 2.03297 21.3108 4.17052 16.0504 7.26608C10.7908 10.3573 6.60313 13.4739 6.60313 13.4739C3.80094 15.5592 1.20094 20.1415 0.83149 23.6561C0.83149 23.6561 0.276581 28.911 0.276581 35.097C0.276581 41.2853 0.83149 46.5394 0.83149 46.5394C1.20094 50.0533 3.80094 54.6357 6.60167 56.7195C6.60167 56.7195 10.7908 59.839 16.0504 62.9338C21.3108 66.025 26.0548 68.1633 26.0548 68.1633C27.6402 68.8765 29.734 69.2339 31.8264 69.2339C33.9188 69.2339 36.0097 68.8765 37.5959 68.1633C37.5959 68.1633 42.3391 66.025 47.5988 62.9338C52.8591 59.839 57.046 56.7195 57.046 56.7195C59.8504 54.6357 62.4468 50.0533 62.8191 46.5394C62.8191 46.5394 63.3733 41.2853 63.3733 35.097C63.3733 28.911 62.8191 23.6561 62.8191 23.6561ZM59.9268 46.2329C59.6373 48.9653 57.4809 52.7756 55.3093 54.3902C55.2693 54.42 51.1726 57.4581 46.1246 60.4302C41.0729 63.3979 36.4453 65.4948 36.4017 65.5144C35.2511 66.0323 33.5835 66.3286 31.8264 66.3286C30.0693 66.3286 28.4017 66.0323 27.2511 65.5144C27.2039 65.4948 22.5777 63.3979 17.5275 60.4302C12.4766 57.4581 8.37985 54.42 8.34058 54.3887C6.16967 52.7741 4.01404 48.9639 3.72385 46.2344C3.71949 46.1835 3.18567 41.0623 3.18567 35.097C3.18567 29.1492 3.71949 24.012 3.72385 23.9597C4.01404 21.231 6.16967 17.4185 8.34204 15.8032C8.38276 15.7734 12.4613 12.7461 17.5275 9.76824C22.5777 6.79615 27.2039 4.70146 27.2511 4.68112C28.4017 4.16253 30.0693 3.86547 31.8264 3.86547C33.5835 3.86547 35.2497 4.16253 36.4002 4.68112C36.4453 4.70146 41.0562 6.78816 46.1246 9.76969C51.174 12.7374 55.2693 15.7734 55.3108 15.8032C57.4795 17.4178 59.6373 21.231 59.9268 23.9612C59.9297 24.012 60.4642 29.1492 60.4642 35.097C60.4642 41.0456 59.9297 46.1835 59.9268 46.2329Z" fill="#fff"/>
        <path fill-rule="evenodd" clip-rule="evenodd" d="M48.4453 23.6751C46.1857 22.441 43.4795 21.7881 40.6228 21.7881C37.3704 21.7881 33.8373 22.6916 31.8264 24.6578C29.8133 22.6916 26.2809 21.7881 23.0278 21.7881C20.1682 21.7881 17.4642 22.441 15.2038 23.6751C14.7384 23.93 14.4482 24.4181 14.4482 24.949V46.2954C14.4482 46.8075 14.7195 47.2832 15.1617 47.5454C15.6017 47.8062 16.1515 47.8163 16.6017 47.5694C18.0009 46.8046 19.6271 46.4175 21.4409 46.4175C25.1966 46.4175 28.9835 48.1323 30.5137 49.4716C30.6744 49.7585 30.9202 49.9967 31.238 50.1217C31.4126 50.1892 31.5915 50.2226 31.7718 50.2226C31.7908 50.2226 31.8075 50.2183 31.8264 50.2168C31.8431 50.2183 31.862 50.2226 31.8788 50.2226C32.0577 50.2226 32.238 50.1892 32.4111 50.1217C32.7311 49.9967 32.9769 49.7585 33.1369 49.4716C34.6657 48.1323 38.4526 46.4175 42.2082 46.4175C44.0206 46.4175 45.6497 46.8046 47.0489 47.5694C47.4977 47.8163 48.046 47.8062 48.4868 47.5454C48.9297 47.2832 49.2009 46.8075 49.2009 46.2954V24.949C49.2009 24.4181 48.9115 23.93 48.4453 23.6751ZM17.3573 44.1078V25.8482C19.0249 25.0994 21.0053 24.6934 23.0278 24.6934C26.4286 24.6934 29.4809 25.8722 30.3173 27.4395V45.8546C28.0649 44.6031 24.8715 43.5122 21.4409 43.5122C19.9937 43.5122 18.6271 43.7127 17.3573 44.1078ZM46.2918 44.1078C45.0206 43.7127 43.6569 43.5122 42.2082 43.5122C38.7777 43.5122 35.5849 44.6017 33.3333 45.8531V27.4395C34.1682 25.8722 37.2213 24.6934 40.6228 24.6934C42.646 24.6934 44.6257 25.0994 46.2918 25.8482V44.1078Z" fill="#fff"/>
    </g>
    <defs>
        <clipPath id="clip0_113_10667">
            <rect width="64" height="69" fill="white" transform="translate(0 0.582764)"/>
        </clipPath>
    </defs>
</svg>