<svg width="65" height="69" viewBox="0 0 65 69" fill="none" xmlns="http://www.w3.org/2000/svg">
    <g clip-path="url(#clip0_113_10635)">
        <path d="M63.2635 22.9005C62.8994 19.381 60.2804 14.7612 57.5152 12.6351C57.5152 12.6351 53.2955 9.48242 48.0564 6.40222C42.8181 3.24951 38.016 1.12291 38.016 1.12291C36.4156 0.389512 34.3056 0.0229492 32.2679 0.0229492C30.1585 0.0229492 28.0482 0.389512 26.5204 1.12291C26.5204 1.12291 21.7911 3.24951 16.48 6.40222C11.2409 9.55519 7.02124 12.6351 7.02124 12.6351C4.18364 14.7615 1.63697 19.381 1.27289 22.9005C1.27289 22.9005 0.691284 28.1801 0.691284 34.4863C0.691284 40.7192 1.27289 46.0718 1.27289 46.0718C1.63697 49.5914 4.25597 54.2109 7.02124 56.3372C7.02124 56.3372 11.2409 59.4904 16.48 62.6431C21.7183 65.7964 26.5204 67.9227 26.5204 67.9227C28.1208 68.6561 30.2311 69.0227 32.2679 69.0227C34.3779 69.0227 36.4882 68.6561 38.016 67.9227C38.016 67.9227 42.7453 65.7964 48.0564 62.6431C53.2955 59.4904 57.5152 56.3372 57.5152 56.3372C60.353 54.2109 62.8994 49.5914 63.2635 46.0718C63.2635 46.0718 63.8451 40.7923 63.8451 34.4863C63.8451 28.2537 63.2635 22.9005 63.2635 22.9005ZM60.353 45.7053C60.0621 48.4914 57.8792 52.3047 55.7693 53.9176C55.6964 53.9176 51.6222 56.9975 46.6014 60.0042C41.5815 63.0103 36.9249 65.1366 36.8523 65.1366C35.6882 65.65 34.0144 65.943 32.2682 65.943C30.5223 65.943 28.8487 65.65 27.6847 65.1366C27.6121 65.1366 23.0286 63.01 17.9355 60.0042C12.9148 56.9978 8.76769 53.9176 8.76769 53.9176C6.5851 52.305 4.47485 48.4184 4.18391 45.7053C4.11104 45.7053 3.60203 40.4993 3.60203 34.4863C3.60203 28.4733 4.11131 23.2671 4.11131 23.2671C4.40252 20.4806 6.58537 16.6679 8.69536 15.0547C8.76796 15.0547 12.8422 11.975 17.8624 8.96842C22.8831 5.96207 27.539 3.83547 27.6124 3.83547C28.849 3.24924 30.5226 2.95572 32.2685 2.95572C34.0149 2.95572 35.6885 3.24897 36.8525 3.76216C36.9251 3.76216 41.5086 5.88849 46.6017 8.89484C51.6224 11.9015 55.7695 14.9811 55.7695 14.9811C57.9521 16.5943 60.0624 20.4804 60.3533 23.1937C60.3533 23.2668 60.8626 28.3995 60.8626 34.4127C60.9349 40.4993 60.353 45.7053 60.353 45.7053Z" fill="#FFFFFF"/>
        <path d="M33.8692 21.5809C33.6506 21.4342 33.3594 21.2876 33.0687 21.2876C32.3413 21.2876 28.7032 20.9944 28.7032 16.888C28.7032 14.7614 30.9584 12.4882 33.0687 12.4882C35.1781 12.4882 36.7062 14.0283 36.7062 15.4215C36.7062 16.8147 35.8334 17.6214 35.2515 17.6214C34.5965 17.6214 34.0872 17.4748 33.8692 17.2549C33.7232 17.0349 33.7232 16.5948 33.7232 16.5215C33.9418 15.715 33.4328 14.9086 32.6317 14.7614C31.8315 14.5418 31.0313 15.055 30.8858 15.8614C30.8127 16.0816 30.4489 17.7681 31.5403 19.088C32.3413 20.1143 33.578 20.5545 35.2515 20.5545C37.6525 20.5545 39.6167 18.281 39.6167 15.4215C39.6167 12.2685 36.6342 9.55518 33.0687 9.55518C29.3577 9.55518 25.7928 13.1483 25.7928 16.888C25.7928 19.3079 26.593 20.9944 27.757 22.094C20.9175 24.0737 15.8976 30.4535 15.8976 37.9328C15.8976 47.0249 23.2464 54.4311 32.2679 54.4311C41.2903 54.4311 48.6388 47.0249 48.6388 37.9328C48.6388 29.4269 42.1631 22.3876 33.8692 21.5809ZM32.2679 51.498C24.8473 51.498 18.8081 45.4117 18.8081 37.9325C18.8081 30.4533 24.8473 24.367 32.2679 24.367C39.689 24.367 45.7283 30.4533 45.7283 37.9325C45.7283 45.485 39.689 51.498 32.2679 51.498Z" fill="#FFFFFF"/>
        <path d="M26.811 37.4196C28.2177 37.4196 29.358 36.2705 29.358 34.8531C29.358 33.4357 28.2177 32.2866 26.811 32.2866C25.4044 32.2866 24.2641 33.4357 24.2641 34.8531C24.2641 36.2705 25.4044 37.4196 26.811 37.4196Z" fill="#FFFFFF"/>
        <path d="M37.7256 37.4196C39.1321 37.4196 40.2723 36.2705 40.2723 34.8531C40.2723 33.4357 39.1321 32.2866 37.7256 32.2866C36.3191 32.2866 35.179 33.4357 35.179 34.8531C35.179 36.2705 36.3191 37.4196 37.7256 37.4196Z" fill="#FFFFFF"/>
        <path d="M39.4713 40.2059C38.7439 39.8393 37.8708 40.1326 37.5073 40.7924C36.4885 42.7723 34.4511 44.0189 32.2682 44.0189C30.0854 44.0189 28.0485 42.7723 27.0297 40.7924C26.6659 40.059 25.7931 39.7657 25.0657 40.2059C24.3381 40.5724 24.0469 41.4525 24.4838 42.1858C26.0117 45.1186 28.9942 46.952 32.2685 46.952C35.5428 46.952 38.5259 45.1186 40.0537 42.1858C40.417 41.4525 40.1989 40.5724 39.4713 40.2059Z" fill="#FFFFFF"/>
    </g>
    <defs>
        <clipPath id="clip0_113_10635">
            <rect width="63.9635" height="69" fill="white" transform="translate(0.423828)"/>
        </clipPath>
    </defs>
</svg>