<svg width="60" height="64" viewBox="0 0 60 64" fill="none" xmlns="http://www.w3.org/2000/svg">
<path d="M54.0153 11.7202C56.6275 13.6994 59.0954 17.955 59.4455 21.2057L59.4486 21.2344C59.481 21.5312 60 26.3657 60 31.966C60 37.6139 59.4844 42.3739 59.4489 42.6948L59.445 42.7303C59.0925 45.9914 56.6788 50.2619 53.9892 52.2316L53.9854 52.2344C53.9203 52.2818 49.9361 55.1823 45 58.0829C40.2893 60.813 36.0606 62.7134 35.5192 62.954C35.4794 62.9717 35.4414 62.989 35.4018 63.0072C33.9551 63.6691 31.9776 64 30 64C28.0773 64 26.0865 63.6644 24.5695 62.9933L24.5118 62.9679C24.1274 62.8002 19.7528 60.8757 15 58.0829C10.2605 55.2979 6.39862 52.5129 6.04088 52.2535C6.02095 52.239 6.00427 52.2267 5.98466 52.2118C3.37253 50.2326 0.904571 45.977 0.554521 42.7263L0.551408 42.6976C0.518959 42.4008 0 37.5663 0 31.966C0 26.3181 0.515599 21.5581 0.551077 21.2372L0.554953 21.2017C0.906481 17.9502 3.30699 13.6952 5.98704 11.7179C6.00504 11.7046 6.02013 11.6937 6.03837 11.6808C6.38018 11.4384 10.2492 8.70877 15 5.91711C19.7107 3.18695 23.9394 1.2866 24.4808 1.04603C24.5206 1.02834 24.5586 1.01097 24.5982 0.992839C26.0449 0.330946 28.0224 0 30 0C31.9227 0 33.9135 0.335571 35.4305 1.00671L35.4882 1.0321C35.8726 1.19979 40.2472 3.12428 45 5.91711C49.7395 8.63734 53.6014 11.4193 53.9591 11.6785C53.979 11.693 53.9957 11.7053 54.0153 11.7202Z" fill="#9455E4"/>
<path fill-rule="evenodd" clip-rule="evenodd" d="M18.2308 19H22.1541V21.6509H18.2308C16.5471 21.6509 15.6509 22.8266 15.6509 23.7273V27.2773H13V23.7273C13 21.1165 15.3419 19 18.2308 19ZM22.1541 44.9998V42.3491H18.2308C16.5471 42.3491 15.6509 41.1734 15.6509 40.2727V36.7318H13V40.2727C13 42.8835 15.3419 45 18.2308 45H41.7692C44.6581 45 47 42.8835 47 40.2727V36.7318H44.3491V40.2727C44.3491 41.1734 43.4529 42.3491 41.7692 42.3491H37.8464V44.9998H22.1541ZM37.8464 19V21.6509H41.7692C43.4529 21.6509 44.3491 22.8266 44.3491 23.7273V27.2773H47V23.7273C47 21.1165 44.6581 19 41.7692 19H37.8464ZM31.3086 26.7992H28.6932V37.1992H31.3086V26.7992ZM24.7697 26.7994H22.1543V37.1994H24.7697V26.7994ZM35.2314 26.7992H37.8468V37.1992H35.2314V26.7992Z" fill="white"/>
</svg>