<svg width="60" height="64" viewBox="0 0 60 64" fill="none" xmlns="http://www.w3.org/2000/svg">
    <path d="M54.0153 11.7202C56.6275 13.6994 59.0954 17.955 59.4455 21.2057L59.4486 21.2344C59.481 21.5312 60 26.3657 60 31.966C60 37.6139 59.4844 42.3739 59.4489 42.6948L59.445 42.7303C59.0925 45.9914 56.6788 50.2619 53.9892 52.2316L53.9854 52.2344C53.9203 52.2818 49.9361 55.1823 45 58.0829C40.2893 60.813 36.0606 62.7134 35.5192 62.954C35.4794 62.9717 35.4414 62.989 35.4018 63.0072C33.9551 63.6691 31.9776 64 30 64C28.0773 64 26.0865 63.6644 24.5695 62.9933L24.5118 62.9679C24.1274 62.8002 19.7528 60.8757 15 58.0829C10.2605 55.2979 6.39862 52.5129 6.04088 52.2535C6.02095 52.239 6.00427 52.2267 5.98466 52.2118C3.37253 50.2326 0.904571 45.977 0.554521 42.7263L0.551408 42.6976C0.518959 42.4008 0 37.5663 0 31.966C0 26.3181 0.515599 21.5581 0.551077 21.2372L0.554953 21.2017C0.906481 17.9502 3.30699 13.6952 5.98704 11.7179C6.00504 11.7046 6.02013 11.6937 6.03837 11.6808C6.38018 11.4384 10.2492 8.70877 15 5.91711C19.7107 3.18695 23.9394 1.2866 24.4808 1.04603C24.5206 1.02834 24.5586 1.01097 24.5982 0.992839C26.0449 0.330946 28.0224 0 30 0C31.9227 0 33.9135 0.335571 35.4305 1.00671L35.4882 1.0321C35.8726 1.19979 40.2472 3.12428 45 5.91711C49.7395 8.63734 53.6014 11.4193 53.9591 11.6785C53.979 11.693 53.9957 11.7053 54.0153 11.7202Z" fill="#1B89EF"/>
    <rect x="23.8291" y="31.3918" width="7.94779" height="2.62875" rx="1.31438" fill="white"/>
    <rect x="23.8291" y="25.2412" width="7.94779" height="2.62875" rx="1.31438" fill="white"/>
    <rect x="33.8447" y="31.2063" width="3" height="3" rx="1.5" fill="white"/>
    <rect x="33.8447" y="25.0557" width="3" height="3" rx="1.5" fill="white"/>
    <rect x="23.8286" y="37.5425" width="13.0161" height="2.62875" rx="1.31438" fill="white"/>
    <path fill-rule="evenodd" clip-rule="evenodd" d="M33.8352 17.5168C34.556 17.5168 35.2111 17.7794 35.6698 18.2388L41.2389 23.6203C41.7631 24.1453 42.0252 24.8016 42.0252 25.5235V44.4244C42.0252 45.8682 40.8458 47.0495 39.4044 47.0495H20.9279C19.4865 47.0495 18.3071 45.8682 18.3071 44.4244V20.142C18.3071 18.6982 19.4865 17.5168 20.9279 17.5168H33.8352ZM39.4044 25.5235L33.9008 20.2732L20.9279 20.142V44.4244H39.4044V25.5235Z" fill="white"/>
</svg>