<svg width="60" height="64" viewBox="0 0 60 64" fill="none" xmlns="http://www.w3.org/2000/svg">
    <path d="M54.0153 11.7202C56.6275 13.6994 59.0954 17.955 59.4455 21.2057L59.4486 21.2344C59.481 21.5312 60 26.3656 60 31.966C60 37.6139 59.4844 42.3739 59.4489 42.6948L59.445 42.7303C59.0925 45.9914 56.6788 50.2619 53.9892 52.2316L53.9854 52.2344C53.9203 52.2818 49.9361 55.1823 45 58.0829C40.2893 60.8131 36.0606 62.7134 35.5192 62.954C35.4794 62.9717 35.4414 62.989 35.4018 63.0072C33.9551 63.6691 31.9776 64 30 64C28.0773 64 26.0865 63.6644 24.5695 62.9933L24.5118 62.9679C24.1274 62.8002 19.7528 60.8757 15 58.0829C10.2605 55.2979 6.39863 52.5129 6.04088 52.2535C6.02095 52.239 6.00427 52.2267 5.98465 52.2118C3.37253 50.2326 0.904571 45.977 0.554521 42.7263L0.551408 42.6976C0.518959 42.4008 0 37.5663 0 31.966C0 26.3181 0.515599 21.5581 0.551077 21.2372L0.554953 21.2017C0.906481 17.9502 3.30699 13.6952 5.98704 11.7179C6.00504 11.7046 6.02013 11.6937 6.03837 11.6808C6.38018 11.4384 10.2492 8.70877 15 5.91711C19.7107 3.18695 23.9394 1.2866 24.4808 1.04603C24.5206 1.02834 24.5586 1.01097 24.5982 0.992838C26.0449 0.330946 28.0224 0 30 0C31.9227 0 33.9135 0.335571 35.4305 1.00671L35.4882 1.0321C35.8726 1.19979 40.2472 3.12428 45 5.91711C49.7395 8.63734 53.6014 11.4193 53.9591 11.6785C53.979 11.693 53.9957 11.7053 54.0153 11.7202Z" fill="#FFA51D"/>
    <path fill-rule="evenodd" clip-rule="evenodd" d="M23.1537 17.4177H36.8467C37.2704 17.4177 37.6065 17.7747 37.5812 18.1976L35.9204 45.8905C35.8971 46.2791 35.5752 46.5823 35.1859 46.5823H24.8144C24.4251 46.5823 24.1032 46.2791 24.0799 45.8905L22.4192 18.1976C22.3938 17.7747 22.73 17.4177 23.1537 17.4177ZM20.0058 18.3423C19.8971 16.5297 21.3378 15 23.1537 15H36.8467C38.6626 15 40.1033 16.5297 39.9946 18.3423L38.3338 46.0352C38.234 47.7006 36.8543 49 35.1859 49H24.8144C23.1461 49 21.7664 47.7006 21.6665 46.0352L20.0058 18.3423ZM31.1509 24.0312C31.1509 24.8449 30.5426 25.3322 30.0004 25.3322C29.4583 25.3322 28.85 24.8449 28.85 24.0312C28.85 23.2175 29.4583 22.7302 30.0004 22.7302C30.5426 22.7302 31.1509 23.2175 31.1509 24.0312ZM33.5686 24.0312C33.5686 26.085 31.9711 27.7499 30.0004 27.7499C28.0298 27.7499 26.4322 26.085 26.4322 24.0312C26.4322 21.9774 28.0298 20.3124 30.0004 20.3124C31.9711 20.3124 33.5686 21.9774 33.5686 24.0312ZM30.0004 33.8321C30.5426 33.8321 31.1509 33.3448 31.1509 32.5311C31.1509 31.7175 30.5426 31.2301 30.0004 31.2301C29.4583 31.2301 28.85 31.7175 28.85 32.5311C28.85 33.3448 29.4583 33.8321 30.0004 33.8321ZM30.0004 36.2499C31.9711 36.2499 33.5686 34.5849 33.5686 32.5311C33.5686 30.4773 31.9711 28.8124 30.0004 28.8124C28.0298 28.8124 26.4322 30.4773 26.4322 32.5311C26.4322 34.5849 28.0298 36.2499 30.0004 36.2499ZM31.1509 41.0312C31.1509 41.8449 30.5426 42.3322 30.0004 42.3322C29.4583 42.3322 28.85 41.8449 28.85 41.0312C28.85 40.2175 29.4583 39.7302 30.0004 39.7302C30.5426 39.7302 31.1509 40.2175 31.1509 41.0312ZM33.5686 41.0312C33.5686 43.085 31.9711 44.7499 30.0004 44.7499C28.0298 44.7499 26.4322 43.085 26.4322 41.0312C26.4322 38.9774 28.0298 37.3124 30.0004 37.3124C31.9711 37.3124 33.5686 38.9774 33.5686 41.0312Z" fill="white"/>
</svg>