<svg width="60" height="64" viewBox="0 0 60 64" fill="none" xmlns="http://www.w3.org/2000/svg">
    <path d="M54.0153 11.7202C56.6275 13.6994 59.0954 17.955 59.4455 21.2057L59.4486 21.2344C59.481 21.5312 60 26.3657 60 31.966C60 37.6139 59.4844 42.3739 59.4489 42.6948L59.445 42.7303C59.0925 45.9914 56.6788 50.2619 53.9892 52.2316L53.9854 52.2344C53.9203 52.2818 49.9361 55.1823 45 58.0829C40.2893 60.813 36.0606 62.7134 35.5192 62.954C35.4794 62.9717 35.4414 62.989 35.4018 63.0072C33.9551 63.6691 31.9776 64 30 64C28.0773 64 26.0865 63.6644 24.5695 62.9933L24.5118 62.9679C24.1274 62.8002 19.7528 60.8757 15 58.0829C10.2605 55.2979 6.39862 52.5129 6.04088 52.2535C6.02095 52.239 6.00427 52.2267 5.98466 52.2118C3.37253 50.2326 0.904571 45.977 0.554521 42.7263L0.551408 42.6976C0.518959 42.4008 0 37.5663 0 31.966C0 26.3181 0.515599 21.5581 0.551077 21.2372L0.554953 21.2017C0.906481 17.9502 3.30699 13.6952 5.98704 11.7179C6.00504 11.7046 6.02013 11.6937 6.03837 11.6808C6.38018 11.4384 10.2492 8.70877 15 5.91711C19.7107 3.18695 23.9394 1.2866 24.4808 1.04603C24.5206 1.02834 24.5586 1.01097 24.5982 0.992839C26.0449 0.330946 28.0224 0 30 0C31.9227 0 33.9135 0.335571 35.4305 1.00671L35.4882 1.0321C35.8726 1.19979 40.2472 3.12428 45 5.91711C49.7395 8.63734 53.6014 11.4193 53.9591 11.6785C53.979 11.693 53.9957 11.7053 54.0153 11.7202Z" fill="#EE3F58"/>
    <path fill-rule="evenodd" clip-rule="evenodd" d="M42.2515 17.0004C42.375 17.6645 41.9344 18.3026 41.2673 18.4256L34.922 19.5957C34.9149 19.6324 34.9074 19.6691 34.8996 19.7058C34.4668 21.7477 33.0513 23.7606 30.4149 24.4912V44.5541H37.3212C37.9997 44.5541 38.5496 45.1017 38.5496 45.7771C38.5496 46.4525 37.9997 47 37.3212 47L20.9424 47C20.2639 47 19.714 46.4525 19.714 45.7771C19.714 45.1017 20.2639 44.5541 20.9424 44.5541H27.9581V24.7427C25.8003 24.577 24.1547 23.3564 23.1696 21.8616C23.1503 21.8323 23.1312 21.8028 23.1124 21.7733L17.4435 22.8186C16.7764 22.9416 16.1355 22.5029 16.0119 21.8388C15.8884 21.1747 16.329 20.5366 16.9961 20.4136L40.8199 16.0207C41.487 15.8977 42.1279 16.3363 42.2515 17.0004ZM29.3107 22.2365C30.7157 21.9783 31.6413 21.1761 32.1409 20.2128L25.9283 21.3546C26.748 22.0755 27.9057 22.4947 29.3107 22.2365Z" fill="white"/>
    <path fill-rule="evenodd" clip-rule="evenodd" d="M32.424 31.0166C32.424 31.8052 32.5936 32.6521 32.9328 33.4625C33.8036 35.5433 35.7923 37.3842 38.8989 37.3842C42.0055 37.3842 43.9942 35.5433 44.865 33.4625C45.2041 32.6522 45.3737 31.8056 45.3737 31.0172H45.3794L39.441 20.7979C39.2021 20.3867 38.6057 20.3868 38.3669 20.798L32.4327 31.0166H32.424ZM42.0584 33.4625C41.3874 34.3179 40.3281 34.9384 38.8989 34.9384C37.4696 34.9384 36.4104 34.3179 35.7393 33.4625H42.0584ZM35.2706 31.0166L38.9045 24.759L42.5408 31.0166H35.2706Z" fill="white"/>
    <path fill-rule="evenodd" clip-rule="evenodd" d="M13 35.7926C13 36.5811 13.1668 37.4274 13.5003 38.2384C14.3667 40.345 16.3582 42.2133 19.4749 42.2133C22.5915 42.2133 24.5831 40.345 25.4494 38.2384C25.7829 37.4274 25.9497 36.5811 25.9497 35.7926H13ZM22.6599 38.2384C21.9879 39.1245 20.9169 39.7675 19.4749 39.7675C18.0328 39.7675 16.9619 39.1245 16.2898 38.2384H22.6599Z" fill="white"/>
    <path d="M18.9398 25.5731C19.1787 25.1618 19.775 25.1618 20.014 25.573L25.9524 35.7923H23.1141L19.4775 29.5341L15.8432 35.7923H13.0053L18.9398 25.5731Z" fill="white"/>
    <path d="M27.5699 38.5811H27.5729L27.5699 38.5758V38.5811Z" fill="white"/>
    <path d="M47 33.806H46.997V33.8007L47 33.806Z" fill="white"/>
</svg>