<svg width="64" height="70" viewBox="0 0 64 70" fill="none" xmlns="http://www.w3.org/2000/svg">
    <g clip-path="url(#clip0_113_10508)">
        <path d="M63.4101 23.4021C63.0415 19.8787 60.3871 15.2543 57.5853 13.1255C57.5853 13.1255 53.3088 9.96915 48 6.88617C42.6912 3.72979 37.8249 1.60106 37.8249 1.60106C36.2028 0.867021 34.0645 0.5 32 0.5C29.8618 0.5 27.7235 0.867021 26.1751 1.60106C26.1751 1.60106 21.3825 3.72979 16 6.88617C10.6912 10.0426 6.41475 13.1255 6.41475 13.1255C3.53917 15.2543 0.958525 19.8787 0.589862 23.4021C0.589862 23.4021 0 28.6872 0 35C0 41.2394 0.589862 46.5979 0.589862 46.5979C0.958525 50.1213 3.6129 54.7457 6.41475 56.8745C6.41475 56.8745 10.6912 60.0308 16 63.1872C21.3088 66.3436 26.1751 68.4723 26.1751 68.4723C27.7972 69.2064 29.9355 69.5734 32 69.5734C34.1382 69.5734 36.2765 69.2064 37.8249 68.4723C37.8249 68.4723 42.6175 66.3436 48 63.1872C53.3088 60.0308 57.5853 56.8745 57.5853 56.8745C60.4608 54.7457 63.0415 50.1213 63.4101 46.5979C63.4101 46.5979 64 41.3128 64 35C64 28.7606 63.4101 23.4021 63.4101 23.4021ZM60.4608 46.2309C60.1659 49.0202 57.9539 52.8372 55.8157 54.4521C55.7419 54.4521 51.6129 57.5351 46.5253 60.5447C41.4378 63.5543 36.7189 65.683 36.6452 65.683C35.4654 66.1968 33.7696 66.4904 32 66.4904C30.2304 66.4904 28.5346 66.1968 27.3548 65.683C27.2811 65.683 22.6359 63.5543 17.4747 60.5447C12.3871 57.5351 8.18433 54.4521 8.18433 54.4521C5.97235 52.8372 3.8341 48.9468 3.53917 46.2309C3.46544 46.2309 2.94931 41.0191 2.94931 35C2.94931 28.9809 3.46544 23.7691 3.46544 23.7691C3.76037 20.9798 5.97235 17.1628 8.1106 15.5479C8.18433 15.5479 12.3134 12.4649 17.4009 9.45532C22.4885 6.44574 27.2074 4.31702 27.2811 4.31702C28.5346 3.72979 30.2304 3.43617 32 3.43617C33.7696 3.43617 35.4654 3.72979 36.6452 4.24362C36.7189 4.24362 41.3641 6.37234 46.5253 9.38192C51.6129 12.3915 55.8157 15.4745 55.8157 15.4745C58.0276 17.0894 60.1659 20.9798 60.4608 23.6957C60.4608 23.7691 60.977 28.9074 60.977 34.9266C61.0507 41.0191 60.4608 46.2309 60.4608 46.2309Z" fill="#FFFFFF"/>
        <path d="M42.3963 45.9371H33.4746V22.9616C37.6037 23.1818 41.8064 24.3563 46.9677 26.5584C47.1152 26.6318 47.3364 26.7052 47.5576 26.7052C48.1474 26.7052 48.6636 26.3382 48.8848 25.8244C49.1797 25.0903 48.811 24.2095 48.0737 23.9158C42.5437 21.5669 37.9723 20.319 33.4746 20.0988V16.2818C33.4746 15.4744 32.811 14.8137 32 14.8137C31.1889 14.8137 30.5253 15.4744 30.5253 16.2818V20.0988C26.0276 20.319 21.4562 21.5669 15.9262 23.9158C15.1889 24.2095 14.8202 25.0903 15.1152 25.8244C15.4101 26.5584 16.2949 26.9254 17.0322 26.6318C22.1935 24.5031 26.3963 23.2552 30.5253 23.035V46.0105H21.5299C20.7189 46.0105 20.0553 46.6712 20.0553 47.4786C20.0553 48.2861 20.7189 48.9467 21.5299 48.9467H42.3963C43.2073 48.9467 43.8709 48.2861 43.8709 47.4786C43.8709 46.5978 43.2073 45.9371 42.3963 45.9371Z" fill="#FFFFFF"/>
        <path d="M26.47 39.3309C27.2811 38.4501 27.4286 37.1288 26.9124 36.1011L22.9309 27.9533C22.4147 26.9256 21.3825 26.3384 20.2765 26.3384C19.1705 26.3384 18.1382 26.999 17.6221 27.9533L13.6406 36.1011C13.1244 37.2022 13.2719 38.4501 14.0829 39.4043C14.4516 39.7714 16.4424 41.6799 20.2028 41.6799C24.1843 41.6799 26.1014 39.7714 26.47 39.3309ZM20.2765 29.2011L24.2581 37.349C24.2581 37.349 23.0046 38.7437 20.2028 38.7437C17.5484 38.7437 16.2949 37.349 16.2949 37.349L20.2765 29.2011Z" fill="#FFFFFF"/>
        <path d="M46.5254 27.9533C46.0092 26.9256 44.977 26.3384 43.871 26.3384C42.765 26.3384 41.7327 26.999 41.2166 27.9533L37.235 36.1011C36.7189 37.2022 36.8664 38.4501 37.6774 39.4043C38.0461 39.7714 40.0369 41.6799 43.7972 41.6799C47.7051 41.6799 49.6959 39.7714 50.0645 39.3309C50.8756 38.4501 51.0231 37.1288 50.5069 36.1011L46.5254 27.9533ZM43.7972 38.7437C41.1429 38.7437 39.8894 37.349 39.8894 37.349L43.871 29.2011L47.8525 37.349C47.8525 37.349 46.5991 38.7437 43.7972 38.7437Z" fill="#FFFFFF"/>
    </g>
    <defs>
        <clipPath id="clip0_113_10508">
            <rect width="64" height="69" fill="white" transform="translate(0 0.5)"/>
        </clipPath>
    </defs>
</svg>