<svg width="64" height="70" viewBox="0 0 64 70" fill="none" xmlns="http://www.w3.org/2000/svg">
    <path d="M47.705 27.522C47.6313 26.3475 47.1152 25.2465 46.2304 24.5858C45.4931 23.9986 44.6083 23.705 43.576 23.705C42.1014 23.705 40.6267 24.3656 39.5207 25.4667C37.9723 27.0082 36.5714 28.3295 35.1705 29.3571C34.7281 28.2561 34.2857 26.8614 34.3594 26.1273C34.4332 25.4667 34.5806 24.8061 34.8018 24.072C35.318 21.7965 35.8341 19.3007 34.9493 17.2454C34.0645 15.1167 32.2212 13.2816 29.8617 12.2539C27.4286 11.1529 24.7742 11.0795 22.5622 12.0337C20.2027 13.0614 18.4332 14.8231 17.5484 17.0986C16.6636 19.4475 16.7373 22.0901 17.7696 24.5124C18.5806 26.4209 20.6451 27.8156 22.4147 29.1369C22.9309 29.5039 23.3733 29.7975 23.8156 30.1646C24.4055 30.6784 25.2166 32.0731 25.7327 33.2475C24.1843 33.4678 22.5622 33.5412 20.6451 33.5412C17.917 33.5412 15.6313 35.3763 15.3364 37.7252C15.1889 38.8263 15.6313 39.9273 16.4424 40.8082C17.4746 41.9826 19.023 42.5699 20.7189 42.5699H20.7926C23.5207 42.5699 26.1751 42.2029 28.8295 41.5422C28.8295 41.6156 28.7557 41.6156 28.7557 41.689C27.1336 44.6986 27.1336 48.3688 28.9032 51.305C30.2304 53.5805 32.3686 55.122 34.8756 55.7826C35.6866 56.0029 36.4977 56.0763 37.3825 56.0763C39.0783 56.0763 40.7742 55.6358 42.3226 54.755C44.6083 53.4337 46.1567 51.305 46.8203 48.8092C47.4839 46.3135 47.1152 43.6709 45.788 41.3954C44.4608 39.1199 42.2488 37.505 39.6682 36.8444C41.9539 35.3763 44.0921 33.688 46.0092 31.7795C47.1889 30.6784 47.7788 29.0635 47.705 27.522ZM25.659 27.889C25.2166 27.522 24.7004 27.155 24.1106 26.788C22.7097 25.8337 20.9401 24.5858 20.4977 23.4114C19.7603 21.6497 19.6866 19.8146 20.2765 18.1997C20.8663 16.6582 22.1198 15.4103 23.7419 14.7497C25.2166 14.089 26.9862 14.1624 28.682 14.9699C30.3041 15.7039 31.6313 17.0252 32.2212 18.4199C32.7373 19.6678 32.2949 21.6497 31.8525 23.4848C31.705 24.2188 31.4839 25.0263 31.4101 25.7603C31.1152 27.5954 32.1474 30.0912 32.5898 31.0454C31.3364 31.7061 30.0092 32.2933 28.6083 32.6603C28.2396 31.5592 27.1336 28.9901 25.659 27.889ZM35.6129 39.1933L36.6451 41.6156C37.235 42.9369 36.9401 43.8912 36.7926 44.038L35.6866 44.4784C35.4654 44.4784 34.5806 44.038 34.0645 42.7167L33.0322 40.2943C33.8433 39.9273 34.7281 39.5603 35.6129 39.1933ZM43.2074 42.9369C44.1659 44.4784 44.3871 46.3135 43.9447 48.0752C43.5023 49.8369 42.3963 51.305 40.7742 52.2592C39.2258 53.2135 37.3825 53.4337 35.6129 52.9933C33.8433 52.5529 32.3686 51.4518 31.4101 49.8369C30.2304 47.855 30.1567 45.5061 31.1889 43.4507L31.3364 43.8178C31.8525 44.9922 32.5898 45.9465 33.4746 46.6071C34.212 47.1209 34.9493 47.3412 35.6866 47.3412C36.0553 47.3412 36.4977 47.2678 36.8663 47.1209L37.9723 46.6805C39.0046 46.2401 39.7419 45.2124 39.8894 43.8912C40.0368 42.7901 39.8894 41.5422 39.3733 40.4412L39.0783 39.8539C40.7742 40.2943 42.3226 41.3954 43.2074 42.9369ZM43.8709 29.7975C37.8249 35.9635 29.4193 39.4869 20.7926 39.6337V41.1018V39.6337C19.9078 39.6337 19.1705 39.3401 18.7281 38.8263C18.5806 38.6795 18.3594 38.3858 18.4332 38.0188C18.5069 37.2114 19.5392 36.4773 20.7926 36.4773C30.1567 36.4039 35.2442 34.2018 41.7327 27.5954C42.3226 27.0082 42.9862 26.7146 43.6498 26.7146C43.9447 26.7146 44.2396 26.788 44.4608 26.9348C44.7557 27.155 44.8295 27.522 44.8295 27.7422C44.8295 28.4029 44.4608 29.2103 43.8709 29.7975Z" fill="#FFF"/>
    <path d="M23.447 16.5115C23.152 16.6583 22.2672 17.1721 21.6036 18.7136C21.0875 20.0349 21.3087 21.3562 21.3825 21.503C21.5299 22.1636 22.1198 22.6041 22.7834 22.6041C22.8571 22.6041 23.0046 22.6041 23.0783 22.6041C23.8894 22.4572 24.4055 21.6498 24.1843 20.8424C24.1843 20.6955 24.1106 20.1817 24.258 19.8147C24.4792 19.3743 24.6267 19.1541 24.7004 19.1541C25.364 18.787 25.5852 17.9796 25.2903 17.3189C25.0691 16.5115 24.1843 16.1445 23.447 16.5115Z" fill="#FFF"/>
    <path d="M32.0002 69.5728C29.4902 69.5728 26.9802 68.9428 24.4302 67.6828C18.2602 64.6328 13.6302 61.9628 7.91018 58.1528C3.17018 55.0028 0.690183 50.7128 0.330183 45.0428C-0.109817 38.1628 -0.109817 32.0228 0.330183 25.1228C0.690183 19.4528 3.17018 15.1628 7.90018 12.0128C13.6402 8.19276 18.2702 5.51276 24.4302 2.47276C29.5202 -0.0472363 34.4802 -0.0472363 39.5702 2.47276C45.7302 5.51276 50.3602 8.19276 56.1002 12.0128C60.8302 15.1628 63.3002 19.4528 63.6702 25.1128C64.1102 32.0028 64.1102 38.1528 63.6702 45.0428C63.3002 50.7128 60.8302 54.9928 56.1002 58.1428C50.3802 61.9528 45.7502 64.6228 39.5802 67.6728C37.0302 68.9428 34.5102 69.5728 32.0002 69.5728ZM3.33018 25.3228C2.90018 32.0828 2.90018 38.1028 3.33018 44.8528C3.63018 49.5928 5.62018 53.0228 9.57018 55.6628C15.1802 59.3928 19.7202 62.0128 25.7602 65.0028C30.0202 67.1128 33.9902 67.1128 38.2502 65.0028C44.2902 62.0128 48.8302 59.3928 54.4402 55.6628C58.3902 53.0328 60.3802 49.6028 60.6802 44.8628C61.1202 38.1028 61.1202 32.0828 60.6802 25.3228C60.3702 20.5828 58.3902 17.1528 54.4402 14.5228C48.8202 10.7828 44.2802 8.16276 38.2502 5.17276C33.9902 3.07276 30.0302 3.06276 25.7702 5.17276C19.7402 8.15276 15.2002 10.7728 9.58018 14.5128C5.61018 17.1428 3.63018 20.5828 3.33018 25.3228Z" fill="#FFF"/>
</svg>