<svg width="60" height="64" viewBox="0 0 60 64" fill="none" xmlns="http://www.w3.org/2000/svg">
    <path d="M54.0153 11.7202C56.6275 13.6994 59.0954 17.955 59.4455 21.2057L59.4486 21.2344C59.481 21.5312 60 26.3657 60 31.966C60 37.6139 59.4844 42.3739 59.4489 42.6948L59.445 42.7303C59.0925 45.9914 56.6788 50.2619 53.9892 52.2316L53.9854 52.2344C53.9203 52.2818 49.9361 55.1823 45 58.0829C40.2893 60.813 36.0606 62.7134 35.5192 62.954C35.4794 62.9717 35.4414 62.989 35.4018 63.0072C33.9551 63.6691 31.9776 64 30 64C28.0773 64 26.0865 63.6644 24.5695 62.9933L24.5118 62.9679C24.1274 62.8002 19.7528 60.8757 15 58.0829C10.2605 55.2979 6.39862 52.5129 6.04088 52.2535C6.02095 52.239 6.00427 52.2267 5.98466 52.2118C3.37253 50.2326 0.904571 45.977 0.554521 42.7263L0.551408 42.6976C0.518959 42.4008 0 37.5663 0 31.966C0 26.3181 0.515599 21.5581 0.551077 21.2372L0.554953 21.2017C0.906481 17.9502 3.30699 13.6952 5.98704 11.7179C6.00504 11.7046 6.02013 11.6937 6.03837 11.6808C6.38018 11.4384 10.2492 8.70877 15 5.91711C19.7107 3.18695 23.9394 1.2866 24.4808 1.04603C24.5206 1.02834 24.5586 1.01097 24.5982 0.992839C26.0449 0.330946 28.0224 0 30 0C31.9227 0 33.9135 0.335571 35.4305 1.00671L35.4882 1.0321C35.8726 1.19979 40.2472 3.12428 45 5.91711C49.7395 8.63734 53.6014 11.4193 53.9591 11.6785C53.979 11.693 53.9957 11.7053 54.0153 11.7202Z" fill="#9CA8BA"/>
    <path fill-rule="evenodd" clip-rule="evenodd" d="M33.7127 17C34.442 17 35.105 17.2667 35.5691 17.7333L41.2044 23.2C41.7348 23.7333 42 24.4 42 25.1333V44.3333C42 45.8 40.8066 47 39.3481 47H20.6519C19.1934 47 18 45.8 18 44.3333V19.6667C18 18.2 19.1934 17 20.6519 17H33.7127ZM34.6409 25.1333H39.3481L33.779 19.8V24.2667C33.779 24.7333 34.1768 25.1333 34.6409 25.1333ZM20.6519 19.6667V44.3333H39.3481V27.8H34.6409C32.7182 27.8 31.1271 26.2 31.1271 24.2667V19.6667H20.6519ZM32.6524 30.1334C33.1828 29.6001 33.9784 29.6001 34.5088 30.1334C34.9729 30.6667 34.9729 31.4667 34.4425 32.0001L26.8845 39.6001C26.6193 39.8667 26.2878 40.0001 25.9563 40.0001C25.6248 40.0001 25.2933 39.8667 25.0281 39.6001C24.4978 39.0667 24.4978 38.2667 25.0281 37.7334L32.6524 30.1334ZM33.6463 40.0658C34.5983 40.0658 35.3701 39.2898 35.3701 38.3325C35.3701 37.3752 34.5983 36.5992 33.6463 36.5992C32.6943 36.5992 31.9225 37.3752 31.9225 38.3325C31.9225 39.2898 32.6943 40.0658 33.6463 40.0658ZM28.0779 31.1995C28.0779 32.1568 27.3061 32.9328 26.3541 32.9328C25.4021 32.9328 24.6304 32.1568 24.6304 31.1995C24.6304 30.2422 25.4021 29.4661 26.3541 29.4661C27.3061 29.4661 28.0779 30.2422 28.0779 31.1995Z" fill="white"/>
</svg>