<svg width="60" height="64" viewBox="0 0 60 64" fill="none" xmlns="http://www.w3.org/2000/svg">
    <path d="M54.0422 11.7406C56.6408 13.7258 59.09 17.9546 59.444 21.1925L59.4497 21.2447C59.4914 21.6283 60 26.4218 60 31.966C60 37.5401 59.4978 42.2495 59.4506 42.68L59.4432 42.7472C59.0843 46.005 56.6758 50.2624 53.992 52.2295L53.9832 52.236C53.8596 52.3259 49.8985 55.2044 45 58.0829C40.4257 60.734 36.3058 62.6027 35.5754 62.9289C35.499 62.963 35.4232 62.9978 35.3469 63.032C33.9053 63.6773 31.9527 64 30 64C28.0891 64 26.1109 63.6685 24.5975 63.0056L24.4816 62.9547C23.9398 62.7174 19.651 60.8159 15 58.0829C10.3646 55.359 6.56862 52.6352 6.06948 52.2742C6.03118 52.2465 5.99538 52.2201 5.95782 52.1914C3.35917 50.2062 0.910009 45.9773 0.555948 42.7395L0.550286 42.6873C0.508603 42.3037 0 37.5102 0 31.966C0 26.3918 0.50223 21.6824 0.549445 21.252L0.556792 21.1848C0.913675 17.9455 3.29693 13.7179 5.96241 11.7361C5.99687 11.7105 6.03022 11.6865 6.06529 11.6617C6.54697 11.321 10.3513 8.64874 15 5.91711C19.5743 3.26599 23.6942 1.39732 24.4246 1.07108C24.501 1.03696 24.5768 1.00218 24.6531 0.967994C26.0947 0.322665 28.0473 0 30 0C31.9108 0 33.8891 0.331462 35.4025 0.994386L35.5184 1.04529C36.0602 1.28265 40.349 3.18411 45 5.91711C49.6354 8.57762 53.4314 11.2971 53.9305 11.6578C53.9688 11.6855 54.0046 11.7119 54.0422 11.7406Z" fill="#2DC36A"/>
    <path fill-rule="evenodd" clip-rule="evenodd" d="M15.3431 17C14.6013 17 14 17.5942 14 18.3271C14 19.0601 14.6013 19.6543 15.3431 19.6543H16.5669V45.6729C16.5669 46.1418 16.8174 46.576 17.2258 46.8149C17.6342 47.0538 18.1399 47.062 18.556 46.8364L22.3968 44.7544L25.321 46.7626C25.7661 47.0683 26.3536 47.0797 26.8104 46.7914L30.0134 44.7701L33.2177 46.7915C33.6745 47.0796 34.2617 47.0683 34.7068 46.7628L37.6322 44.7544L41.4733 46.8364C41.8894 47.062 42.395 47.0538 42.8034 46.8149C43.2118 46.576 43.4623 46.1418 43.4623 45.6729V19.6543H44.6569C45.3987 19.6543 46 19.0601 46 18.3271C46 17.5942 45.3987 17 44.6569 17L15.3431 17ZM40.7761 19.6543L19.2531 19.6543V43.4311L21.8343 42.032C22.2811 41.7897 22.8282 41.8183 23.2468 42.1057L26.119 44.0783L29.2904 42.077C29.7312 41.7989 30.2953 41.7988 30.7361 42.0769L33.9089 44.0785L36.7826 42.1056C37.2011 41.8183 37.7482 41.7898 38.1949 42.032L40.7761 43.4311V19.6543ZM24.6003 25.3849C23.8585 25.3849 23.2572 25.979 23.2572 26.712C23.2572 27.445 23.8585 28.0392 24.6003 28.0392L35.4001 28.0392C36.1419 28.0392 36.7432 27.445 36.7432 26.712C36.7432 25.979 36.1419 25.3849 35.4001 25.3849L24.6003 25.3849ZM23.2572 33.5724C23.2572 32.8394 23.8585 32.2452 24.6003 32.2452H29.2288C29.9705 32.2452 30.5719 32.8394 30.5719 33.5724C30.5719 34.3053 29.9705 34.8995 29.2288 34.8995H24.6003C23.8585 34.8995 23.2572 34.3053 23.2572 33.5724Z" fill="white"/>
</svg>